<svg width="103" height="96" viewBox="0 0 103 96" fill="none" xmlns="http://www.w3.org/2000/svg">
<path d="M102.846 35.107C102.792 34.5483 102.61 34.037 102.327 33.5888L102.337 33.6046C102.273 33.4499 102.212 33.3205 102.141 33.1974L102.151 33.2164C102.08 33.1248 101.972 33.0775 101.895 32.9923C101.712 32.7966 101.51 32.6198 101.294 32.4652L101.284 32.4589C100.666 32.0075 99.8966 31.7077 99.063 31.6256H99.0428C98.928 31.6162 98.8301 31.5625 98.712 31.5625C98.5433 31.5846 98.3981 31.613 98.2598 31.6477L98.2868 31.6414C97.686 31.6919 97.1359 31.8655 96.6566 32.1306L96.6735 32.1212C96.5081 32.1811 96.3698 32.2379 96.2381 32.3042L96.2584 32.2948L92.8058 34.602V10.2578C92.799 4.5955 87.8918 0.0063125 81.837 0H21.087C15.0322 0.0063125 10.125 4.5955 10.1183 10.2578V34.6051L6.66563 32.2979C6.55425 32.2443 6.41925 32.1843 6.28088 32.1338L6.25388 32.1243C5.78813 31.8655 5.238 31.6919 4.64738 31.6446H4.63388C4.5225 31.6162 4.38075 31.5878 4.239 31.5688L4.21875 31.5657C4.104 31.5657 4.0095 31.6193 3.89812 31.6256C3.57412 31.654 3.27713 31.7108 2.997 31.7992L3.02737 31.7929C2.754 31.8623 2.52113 31.9476 2.295 32.0517L2.31862 32.0423C2.0655 32.1717 1.8495 32.3105 1.65038 32.4652L1.65712 32.4589C1.42762 32.623 1.22512 32.7998 1.04287 32.9954L1.0395 32.9986C0.961875 33.0838 0.85725 33.128 0.786375 33.2195C0.729 33.3205 0.664875 33.4468 0.610875 33.5793L0.60075 33.6046C0.327375 34.037 0.14175 34.5452 0.0877501 35.0912V35.1038C0.0540001 35.2143 0.023625 35.3532 0.00337496 35.492L0 35.511V86.011C0.00675 91.6733 4.914 96.2625 10.9688 96.2688H91.9688C98.0235 96.2656 102.934 91.6733 102.938 86.011V35.511C102.914 35.35 102.883 35.2143 102.843 35.0817L102.846 35.107ZM18.5591 10.261C18.5625 8.95428 19.6931 7.89694 21.0904 7.89378H81.8404C83.2376 7.89378 84.3716 8.95428 84.3716 10.261V40.2422L78.3 44.298C78.9143 43.6383 79.2923 42.7735 79.3091 41.8266V41.8235C79.3091 39.6457 77.4191 37.8782 75.0904 37.8782H27.8404C25.5116 37.8782 23.6216 39.6457 23.6216 41.8235C23.6385 42.7735 24.0165 43.6383 24.6341 44.3043L24.6307 44.298L18.5591 40.2422V10.261ZM51.4654 62.2223L45.7312 58.3938H57.1995L51.4654 62.2223ZM69.012 50.5032H33.9187L26.433 45.5037C26.8481 45.6615 27.3307 45.7562 27.8336 45.7688H27.8404H75.0904C75.6 45.7562 76.0826 45.6615 76.5247 45.4942L76.4977 45.5037L69.012 50.5032ZM91.9654 88.3782H10.9654C9.56812 88.3782 8.43412 87.3176 8.43412 86.011V43.1775L49.0117 70.2834C49.1164 70.3402 49.2446 70.4002 49.3762 70.4538L49.4032 70.4633C49.5079 70.5201 49.6327 70.5801 49.7644 70.6337L49.7914 70.6432C50.2808 70.8641 50.8545 70.9998 51.4586 71.0156H51.4654H51.4721C52.083 70.9998 52.6567 70.8641 53.1697 70.6337L53.1427 70.6432C53.298 70.5801 53.4263 70.5201 53.5478 70.4538L53.5275 70.4633C53.6861 70.4002 53.8144 70.337 53.9359 70.2708L53.9156 70.2802L94.4933 43.1743V86.0078C94.4933 87.3145 93.3593 88.375 91.962 88.375L91.9654 88.3782ZM27.8404 20.5188H75.0904C77.4191 20.5188 79.3091 18.7513 79.3091 16.5735C79.3091 14.3957 77.4191 12.6282 75.0904 12.6282H27.8404C25.5116 12.6282 23.6216 14.3957 23.6216 16.5735C23.6216 18.7513 25.5116 20.5188 27.8404 20.5188ZM27.8404 33.1438H75.0904C77.4191 33.1438 79.3091 31.3763 79.3091 29.1985C79.3091 27.0207 77.4191 25.2532 75.0904 25.2532H27.8404C25.5116 25.2532 23.6216 27.0207 23.6216 29.1985C23.6216 31.3763 25.5116 33.1438 27.8404 33.1438Z" fill="white"/>
</svg>
