<svg width="93" height="102" viewBox="0 0 93 102" fill="none" xmlns="http://www.w3.org/2000/svg">
<path d="M91.3993 102H1.47999C0.662542 102 0 101.324 0 100.49V82.9716C0 76.1941 3.98611 70.1884 10.1552 67.6714L31.4306 58.9913C31.803 58.8393 32.2204 58.8479 32.5859 59.0154C32.952 59.183 33.2356 59.4945 33.3723 59.8794L39.6346 77.5396L41.6953 71.4972L39.8739 66.9564C39.6869 66.4909 39.7402 65.9605 40.0145 65.5434C40.2898 65.1257 40.7501 64.8751 41.2434 64.8751H51.6359C52.1292 64.8751 52.59 65.1257 52.8648 65.5434C53.1395 65.961 53.1923 66.4909 53.0054 66.9564L51.1845 71.4977L53.2451 77.5401L59.5075 59.8799C59.6436 59.495 59.9278 59.1835 60.2938 59.0159C60.6594 58.8484 61.0767 58.8398 61.4492 58.9918L82.7241 67.6719C88.8937 70.1889 92.8798 76.1951 92.8798 82.9721V100.491C92.8793 101.324 92.2172 102 91.3993 102ZM2.95998 98.9808H89.9198V82.9716C89.9198 77.436 86.6638 72.5303 81.6249 70.4747L61.7709 62.3743L54.6097 82.5681C54.3966 83.1689 53.8351 83.5598 53.2086 83.5639C52.5816 83.5598 52.0261 83.1538 51.8199 82.5499L48.2058 71.9496C48.0874 71.6024 48.0967 71.2225 48.2339 70.8823L49.4322 67.8938H43.4476L44.6464 70.8818C44.783 71.2225 44.7929 71.6019 44.675 71.9496L41.0604 82.5499C40.8541 83.1538 40.2982 83.5598 39.6716 83.5639C39.0269 83.5619 38.4837 83.1689 38.2706 82.5681L31.1094 62.3743L11.2543 70.4747C6.21547 72.5303 2.95998 77.4354 2.95998 82.9716V98.9808ZM80.0389 95.3965H63.4743C62.6569 95.3965 61.9943 94.7207 61.9943 93.887V83.4859C61.9943 82.6521 62.6569 81.9763 63.4743 81.9763H80.0389C80.8563 81.9763 81.5189 82.6521 81.5189 83.4859V93.887C81.5189 94.7202 80.8563 95.3965 80.0389 95.3965ZM64.9543 92.3774H78.5589V84.9955H64.9543V92.3774ZM46.4396 58.636C44.1486 58.636 41.9148 58.2023 39.7999 57.3463C38.1655 56.6846 36.8148 55.8523 35.7862 54.8726C32.9451 52.1679 29.9915 46.3801 28.9027 44.1268C27.0537 44.0353 23.2615 43.0299 21.6197 36.6277C20.8047 33.4485 20.9907 30.8933 22.1722 29.0334C22.817 28.018 23.6285 27.4202 24.3 27.073C24.2881 26.28 24.3059 25.1241 24.4302 23.7393C23.3898 22.1185 21.114 17.2853 25.0212 10.2114C25.0222 10.2099 25.0227 10.2089 25.0237 10.2073C25.0237 10.2073 25.0281 10.1993 25.0291 10.1973C25.0296 10.1963 25.0493 10.1616 25.0508 10.1585C25.0543 10.153 25.0577 10.147 25.0607 10.1414C25.0646 10.1349 25.0681 10.1283 25.0715 10.1218C25.0725 10.1203 25.0735 10.1188 25.0745 10.1173C27.6319 5.55529 30.9407 4.59419 33.2702 4.59268C33.2707 4.59268 33.2712 4.59268 33.2717 4.59268H33.2727C33.2736 4.59268 33.2751 4.59268 33.2751 4.59268H33.2761C33.8474 4.59268 34.3624 4.65205 34.799 4.73307C35.8607 2.82998 38.8384 0 47.1471 0C47.1461 0 47.1476 0 47.1471 0H47.1481C47.153 0 47.1579 0 47.1629 0L47.5388 0.00201279C47.5422 0.00201279 47.5457 0.00201279 47.5491 0.00201279H47.5516C47.5565 0.00201279 47.561 0.00201279 47.5649 0.00201279C53.0493 0.063906 57.4221 2.11443 60.1458 3.84442C65.3199 6.42633 68.4836 11.8206 69.2596 14.6204C69.599 15.8467 69.7692 17.2722 69.7643 18.8568C69.7643 18.8573 69.7643 18.8578 69.7643 18.8583C69.7643 18.8583 69.7643 18.8588 69.7643 18.8593C69.7643 18.8608 69.7643 18.8628 69.7643 18.8648C69.7643 18.8654 69.7643 18.8664 69.7643 18.8669C69.7643 18.8679 69.7643 18.8694 69.7643 18.8709C69.7643 18.8729 69.7643 18.8759 69.7643 18.8784C69.7643 18.8804 69.7643 18.883 69.7643 18.885C69.7643 18.8875 69.7643 18.8905 69.7643 18.893C69.7475 22.5201 68.8373 25.9987 68.5808 26.9084C68.5803 26.9643 68.5798 27.0186 68.5788 27.071C69.2502 27.4182 70.0623 28.016 70.7066 29.0314C71.8886 30.8918 72.0741 33.4465 71.2591 36.6257C69.6178 43.0279 65.8255 44.0337 63.9765 44.1253C62.8878 46.3786 59.9342 52.1664 57.0926 54.8716C56.0635 55.8513 54.7133 56.6836 53.0789 57.3448C50.964 58.2023 48.7302 58.636 46.4396 58.636ZM29.7922 41.0714C30.364 41.0714 30.9096 41.402 31.1553 41.9399C31.1903 42.0174 34.7319 49.739 37.8059 52.6656C38.5636 53.3872 39.6016 54.0177 40.8912 54.54C42.6573 55.2545 44.5235 55.6173 46.4391 55.6173C48.3547 55.6173 50.221 55.255 51.9871 54.54C53.2762 54.0182 54.3147 53.3877 55.0729 52.6661C58.1469 49.739 61.6885 42.0179 61.7235 41.9404C62.0126 41.3074 62.6914 40.9597 63.3604 41.0976C63.3599 41.0976 63.3599 41.0976 63.3599 41.0976C63.3638 41.0976 63.4847 41.1157 63.6736 41.1157C64.9341 41.1157 67.2231 40.4334 68.3948 35.8638C68.9735 33.607 68.9236 31.8292 68.2517 30.7232C67.6844 29.7898 66.8221 29.5975 66.7851 29.59C66.0244 29.4607 65.5157 28.7622 65.5808 27.9782C65.5808 27.9752 65.6178 27.5103 65.6213 26.7369C65.5947 26.3147 65.3865 25.0401 64.7599 24.4332C64.0022 23.8158 59.3915 22.9085 54.9328 22.031C53.0586 21.6621 50.9349 21.2445 48.6961 20.777C48.6937 20.7765 48.6907 20.776 48.6877 20.7755C47.2245 20.5043 45.9626 20.1369 44.934 19.6846C41.1733 18.2681 38.5858 16.2367 37.0131 14.6868C36.4467 16.2885 35.5375 18.2756 34.1735 19.7781C31.7537 22.4441 28.8263 23.8556 27.3413 24.4468C27.1835 26.5456 27.2945 27.9631 27.296 27.9792C27.3601 28.7622 26.8243 29.4667 26.0646 29.5955C26.0547 29.5985 25.1924 29.7908 24.6251 30.7242C23.9532 31.8302 23.9033 33.608 24.482 35.8648C25.6542 40.4349 27.9437 41.1167 29.2037 41.1167C29.4109 41.1167 29.5367 41.0951 29.5377 41.0951C29.6235 41.0785 29.7083 41.0714 29.7922 41.0714ZM36.3441 10.1122C36.835 10.1122 37.3022 10.3618 37.5794 10.7906C37.6016 10.8243 40.1995 14.6918 45.9961 16.8646C46.0243 16.8752 46.0509 16.8858 46.078 16.8979C46.9103 17.2682 47.9759 17.5746 49.2447 17.8086C49.2635 17.8122 49.2817 17.8157 49.3005 17.8197C51.513 18.2816 53.6279 18.6983 55.4947 19.0656C62.2242 20.39 65.2385 21.0155 66.5636 22.0395C66.7007 21.0482 66.7999 19.9638 66.8048 18.8799C66.8048 18.8779 66.8048 18.8754 66.8048 18.8729C66.8048 18.8714 66.8048 18.8694 66.8048 18.8679C66.8048 18.8664 66.8048 18.8643 66.8048 18.8628C66.8048 18.8628 66.8048 18.8623 66.8048 18.8618C66.8048 18.8608 66.8048 18.8593 66.8048 18.8583C66.8048 18.8578 66.8048 18.8573 66.8048 18.8563C66.8048 18.8563 66.8048 18.8558 66.8048 18.8553C66.8048 18.8538 66.8048 18.8523 66.8048 18.8503C66.8048 18.8487 66.8048 18.8472 66.8048 18.8457C66.8083 17.6305 66.6928 16.5527 66.4634 15.6383C66.4466 15.5724 66.4299 15.5075 66.4121 15.4436C66.3761 15.3133 66.3332 15.1769 66.2843 15.035C65.4324 12.5673 62.6574 8.45874 58.8212 6.54609C58.7606 6.51791 58.7018 6.4857 58.6451 6.44947C56.25 4.91674 52.3769 3.07755 47.5333 3.02321C47.5294 3.02321 47.525 3.02321 47.5215 3.02321L47.1476 3.01918C46.9113 3.01918 46.6809 3.0217 46.4559 3.02623C46.453 3.02623 46.451 3.02623 46.448 3.02623C38.1354 3.20637 37.1951 6.5949 37.1512 6.77856C37.1448 6.81681 37.1379 6.85505 37.129 6.89329C37.0777 7.11621 36.9795 7.31799 36.8468 7.48857C36.7452 7.6189 36.6248 7.7291 36.4906 7.81716C36.278 7.95705 36.0299 8.04259 35.7669 8.05668C35.6096 8.06574 35.4522 8.04863 35.2963 8.00485C35.2238 7.98422 35.1532 7.95906 35.0856 7.92837C34.9825 7.8866 34.2633 7.61135 33.2751 7.61135C33.2741 7.61135 33.2736 7.61135 33.2727 7.61135C31.0162 7.61236 29.1159 8.97099 27.6245 11.6495C27.6235 11.651 27.6225 11.6525 27.6216 11.654C27.6216 11.6545 27.6211 11.6545 27.6211 11.655C27.6191 11.6586 27.6171 11.6616 27.6151 11.6651C27.6122 11.6706 27.6092 11.6757 27.6063 11.6812C27.6053 11.6832 27.6043 11.6847 27.6033 11.6867C27.6023 11.6878 27.6018 11.6888 27.6013 11.6898C24.8796 16.6151 25.8416 20.0091 26.5762 21.5026C27.8638 20.9526 30.1415 19.7756 32.0018 17.7261C33.731 15.8215 34.6732 12.4652 34.8903 11.3325C35.0057 10.7307 35.4665 10.2602 36.056 10.1414C36.1527 10.1213 36.2489 10.1122 36.3441 10.1122Z" fill="#FFFAFA"/>
</svg>
