<svg width="102" height="102" viewBox="0 0 102 102" fill="none" xmlns="http://www.w3.org/2000/svg">
<path d="M86.0625 0H15.9375C11.7106 0 7.65685 1.67912 4.66799 4.66799C1.67912 7.65685 0 11.7106 0 15.9375V66.9375C0 71.1644 1.67912 75.2182 4.66799 78.207C7.65685 81.1959 11.7106 82.875 15.9375 82.875H19.125V98.8125C19.1251 99.4432 19.3123 100.06 19.663 100.584C20.0136 101.108 20.512 101.517 21.0949 101.758C21.4804 101.919 21.8945 102.002 22.3125 102C22.7314 102.001 23.1463 101.919 23.5335 101.759C23.9207 101.6 24.2727 101.365 24.5693 101.069L42.7571 82.875H86.0625C90.2894 82.875 94.3432 81.1959 97.332 78.207C100.321 75.2182 102 71.1644 102 66.9375V15.9375C102 11.7106 100.321 7.65685 97.332 4.66799C94.3432 1.67912 90.2894 0 86.0625 0ZM95.625 66.9375C95.625 69.4736 94.6175 71.9059 92.8242 73.6992C91.0309 75.4925 88.5986 76.5 86.0625 76.5H41.4375C41.0186 76.4993 40.6037 76.5811 40.2165 76.7408C39.8293 76.9005 39.4773 77.1349 39.1807 77.4307L25.5 91.1179V79.6875C25.5 78.8421 25.1642 78.0314 24.5664 77.4336C23.9686 76.8358 23.1579 76.5 22.3125 76.5H15.9375C13.4014 76.5 10.9691 75.4925 9.1758 73.6992C7.38248 71.9059 6.375 69.4736 6.375 66.9375V15.9375C6.375 13.4014 7.38248 10.9691 9.1758 9.17579C10.9691 7.38247 13.4014 6.375 15.9375 6.375H86.0625C88.5986 6.375 91.0309 7.38247 92.8242 9.17579C94.6175 10.9691 95.625 13.4014 95.625 15.9375V66.9375ZM82.6328 42.6551C82.4694 43.0426 82.2335 43.3953 81.9379 43.6943L69.1879 56.4443C68.5905 57.0401 67.7812 57.3748 66.9375 57.375C66.5186 57.3757 66.1037 57.2939 65.7165 57.1342C65.3293 56.9745 64.9773 56.7401 64.6807 56.4443C64.3839 56.1482 64.1484 55.7964 63.9877 55.4092C63.827 55.0219 63.7443 54.6068 63.7443 54.1875C63.7443 53.7682 63.827 53.3531 63.9877 52.9658C64.1484 52.5786 64.3839 52.2268 64.6807 51.9307L71.9929 44.625H41.4375C38.9014 44.625 36.4691 45.6325 34.6758 47.4258C32.8825 49.2191 31.875 51.6514 31.875 54.1875C31.875 55.0329 31.5392 55.8436 30.9414 56.4414C30.3436 57.0392 29.5329 57.375 28.6875 57.375C27.8421 57.375 27.0314 57.0392 26.4336 56.4414C25.8358 55.8436 25.5 55.0329 25.5 54.1875C25.5 49.9606 27.1791 45.9068 30.168 42.918C33.1568 39.9291 37.2106 38.25 41.4375 38.25H71.9929L64.6807 30.9443C64.3839 30.6482 64.1484 30.2964 63.9877 29.9092C63.827 29.5219 63.7443 29.1068 63.7443 28.6875C63.7443 28.2682 63.827 27.8531 63.9877 27.4658C64.1484 27.0786 64.3839 26.7268 64.6807 26.4307C64.9768 26.1339 65.3286 25.8984 65.7158 25.7377C66.1031 25.577 66.5182 25.4943 66.9375 25.4943C67.3568 25.4943 67.7719 25.577 68.1592 25.7377C68.5464 25.8984 68.8982 26.1339 69.1943 26.4307L81.9443 39.1807C82.2399 39.4797 82.4758 39.8324 82.6391 40.2199C82.9559 41.0011 82.9537 41.8755 82.6328 42.6551Z" fill="white"/>
</svg>
