<svg width="110" height="110" viewBox="0 0 110 110" fill="none" xmlns="http://www.w3.org/2000/svg">
<path d="M94.3711 11.2291V103.125H15.6294V11.4583H37.4919V16.0416C37.5039 18.3597 38.4301 20.5793 40.0692 22.2185C41.7084 23.8576 43.928 24.7838 46.2461 24.7958H63.7544C66.0724 24.7838 68.2921 23.8576 69.9312 22.2185C71.5703 20.5793 72.4965 18.3597 72.5086 16.0416V11.4583L94.3711 11.2291Z" stroke="white" stroke-width="4.775" stroke-miterlimit="10"/>
<path d="M46.2458 76.8625H57.2C58.9383 76.8625 60.6053 76.172 61.8345 74.9429C63.0636 73.7137 63.7542 72.0466 63.7542 70.3084C63.7542 68.5701 63.0636 66.903 61.8345 65.6739C60.6053 64.4447 58.9383 63.7542 57.2 63.7542H52.6167C50.8784 63.7542 49.2113 63.0637 47.9822 61.8345C46.753 60.6054 46.0625 58.9383 46.0625 57.2C46.0625 55.4618 46.753 53.7947 47.9822 52.5655C49.2113 51.3364 50.8784 50.6459 52.6167 50.6459H63.5708" stroke="white" stroke-width="4.775" stroke-miterlimit="10" stroke-linecap="square"/>
<path d="M55 41.8917V50.6459" stroke="white" stroke-width="4.775" stroke-miterlimit="10" stroke-linecap="square"/>
<path d="M55 76.8625V85.6167" stroke="white" stroke-width="4.775" stroke-miterlimit="10" stroke-linecap="square"/>
<path d="M72.5084 6.875V15.6292C72.4963 17.9472 71.5701 20.1669 69.931 21.806C68.2919 23.4451 66.0722 24.3713 63.7542 24.3833H46.2459C43.9278 24.3713 41.7082 23.4451 40.069 21.806C38.4299 20.1669 37.5037 17.9472 37.4917 15.6292V6.875H72.5084Z" stroke="white" stroke-width="4.775" stroke-miterlimit="10"/>
</svg>
