<svg width="101" height="87" viewBox="0 0 101 87" fill="none" xmlns="http://www.w3.org/2000/svg">
<path d="M89.6711 28.0856L61.5856 0L55.6644 5.92112L77.8289 28.0856H22.6711L44.8356 5.92112L38.9144 0L10.8289 28.0856H0L8.375 86.7106H92.125L100.5 28.0856H89.6711ZM84.8597 78.3356H15.6403L9.65638 36.4606H90.8436L84.8597 78.3356ZM29.3125 53.2106H20.9375V44.8356H29.3125V53.2106ZM46.0625 53.2106H37.6875V44.8356H46.0625V53.2106ZM62.8125 53.2106H54.4375V44.8356H62.8125V53.2106ZM79.5625 53.2106H71.1875V44.8356H79.5625V53.2106ZM29.3125 69.9606H20.9375V61.5856H29.3125V69.9606ZM46.0625 69.9606H37.6875V61.5856H46.0625V69.9606ZM62.8125 69.9606H54.4375V61.5856H62.8125V69.9606ZM79.5625 69.9606H71.1875V61.5856H79.5625V69.9606Z" fill="white"/>
</svg>
