<svg width="79" height="72" viewBox="0 0 79 72" fill="none" xmlns="http://www.w3.org/2000/svg">
<path d="M22.3399 44.0317C22.8087 45.6951 24.5643 46.6713 26.2611 46.2118C27.958 45.7522 28.9536 44.0309 28.4847 42.3672L22.3399 44.0317ZM4.04048 0.114544C2.34418 -0.346873 0.58748 0.627253 0.116835 2.29029C-0.35381 3.95338 0.639798 5.67563 2.33614 6.13704L4.04048 0.114544ZM76.2399 45.9513C77.9437 45.5176 78.9662 43.8113 78.5234 42.1409C78.0805 40.4705 76.3406 39.4684 74.6368 39.9026L76.2399 45.9513ZM33.779 53.5905C35.0948 58.2601 32.2064 63.1863 27.0898 64.4901L28.6933 70.5392C37.0957 68.3984 42.2301 60.1118 39.9236 51.9263L33.779 53.5905ZM27.0898 64.4901C21.94 65.8022 16.7722 62.8717 15.4454 58.163L9.30053 59.8272C11.596 67.9734 20.3241 72.6718 28.6933 70.5392L27.0898 64.4901ZM15.4454 58.163C14.1296 53.4934 17.0178 48.5672 22.1344 47.2634L20.5309 41.2142C12.1284 43.3551 6.99393 51.6417 9.30053 59.8272L15.4454 58.163ZM22.1344 47.2634C27.2842 45.9513 32.4519 48.8817 33.779 53.5905L39.9236 51.9263C37.6282 43.7801 28.9 39.0822 20.5309 41.2142L22.1344 47.2634ZM28.4847 42.3672L19.3376 9.90675L13.1928 11.5711L22.3399 44.0317L28.4847 42.3672ZM11.2812 2.08404L4.04048 0.114544L2.33614 6.13704L9.57687 8.10655L11.2812 2.08404ZM19.3376 9.90675C18.2618 6.08913 15.178 3.144 11.2812 2.08404L9.57687 8.10655C11.3856 8.59855 12.7327 9.93813 13.1928 11.5711L19.3376 9.90675ZM37.6528 55.783L76.2399 45.9513L74.6368 39.9026L36.0493 49.7338L37.6528 55.783Z" fill="white"/>
</svg>
