<svg width="102" height="100" viewBox="0 0 102 100" fill="none" xmlns="http://www.w3.org/2000/svg">
<path d="M31.9014 63.6028C32.3703 65.2661 34.1258 66.2424 35.8227 65.7828C37.5195 65.3232 38.5151 63.602 38.0463 61.9382L31.9014 63.6028ZM13.602 19.6856C11.9057 19.2242 10.149 20.1983 9.67836 21.8613C9.20771 23.5244 10.2013 25.2467 11.8977 25.7081L13.602 19.6856ZM85.8014 65.5224C87.5052 65.0886 88.5278 63.3824 88.0849 61.712C87.6421 60.0415 85.9021 59.0395 84.1983 59.4736L85.8014 65.5224ZM43.3405 73.1615C44.6563 77.8311 41.7679 82.7574 36.6514 84.0611L38.2548 90.1103C46.6572 87.9695 51.7916 79.6828 49.4851 71.4974L43.3405 73.1615ZM36.6514 84.0611C31.5015 85.3732 26.3338 82.4428 25.0069 77.734L18.8621 79.3982C21.1576 87.5445 29.8857 92.2428 38.2548 90.1103L36.6514 84.0611ZM25.0069 77.734C23.6911 73.0645 26.5793 68.1382 31.6959 66.8345L30.0924 60.7853C21.69 62.9261 16.5555 71.2128 18.8621 79.3982L25.0069 77.734ZM31.6959 66.8345C36.8457 65.5224 42.0135 68.4528 43.3405 73.1615L49.4851 71.4974C47.1897 63.3511 38.4616 58.6532 30.0924 60.7853L31.6959 66.8345ZM38.0463 61.9382L28.8992 29.4778L22.7543 31.1421L31.9014 63.6028L38.0463 61.9382ZM20.8427 21.6551L13.602 19.6856L11.8977 25.7081L19.1384 27.6776L20.8427 21.6551ZM28.8992 29.4778C27.8234 25.6602 24.7395 22.715 20.8427 21.6551L19.1384 27.6776C20.9471 28.1696 22.2942 29.5092 22.7543 31.1421L28.8992 29.4778ZM47.2144 75.354L85.8014 65.5224L84.1983 59.4736L45.6108 69.3049L47.2144 75.354Z" fill="white"/>
<path d="M81.4502 25.9825C79.389 18.6676 78.3583 15.0102 75.3281 13.3466C72.2983 11.6831 68.4516 12.6631 60.7591 14.6231L52.5995 16.702C44.9066 18.662 41.0603 19.642 39.3108 22.5234C37.5613 25.4048 38.5919 29.0622 40.6532 36.377L42.8394 44.1358C44.9006 51.4504 45.9313 55.1079 48.9615 56.7717C51.9918 58.435 55.8384 57.455 63.5309 55.495L71.6905 53.4163C79.3834 51.4563 83.2297 50.4763 84.979 47.5946C85.9403 46.0121 86.0623 44.1954 85.6356 41.6667" stroke="white" stroke-width="5" stroke-linecap="round"/>
</svg>
