<svg width="98" height="98" viewBox="0 0 98 98" fill="none" xmlns="http://www.w3.org/2000/svg">
<path d="M87.5 29.75C87.5 30.716 86.716 31.5 85.75 31.5H75.25C74.284 31.5 73.5 30.716 73.5 29.75C73.5 28.784 74.284 28 75.25 28H85.75C86.716 28 87.5 28.784 87.5 29.75ZM98 26.25V63C98 64.932 96.432 66.5 94.5 66.5H66.5H52.5V94.5C52.5 96.432 50.932 98 49 98H42C40.068 98 38.5 96.432 38.5 94.5V66.5H3.5C1.568 66.5 0 64.932 0 63V26.25C0 17.5525 7.0525 10.5 15.75 10.5H38.5V3.5C38.5 1.568 40.068 0 42 0H56C57.932 0 59.5 1.568 59.5 3.5V10.5H78.75H82.25C90.9475 10.5 98 17.5525 98 26.25ZM42 31.5H49V14H56V3.5H42V31.5ZM49 66.5H42V94.5H49V66.5ZM63 63V26.25C63 21.273 65.3555 16.8875 68.9605 14H59.5C59.5 15.932 57.932 17.5 56 17.5H52.5V31.5C52.5 33.432 50.932 35 49 35H42C40.068 35 38.5 33.432 38.5 31.5V14H15.75C8.995 14 3.5 19.495 3.5 26.25V63H63ZM94.5 26.25C94.5 19.495 89.005 14 82.25 14H78.75C71.995 14 66.5 19.495 66.5 26.25V63H94.5V26.25Z" fill="white"/>
</svg>
