<svg width="88" height="88" viewBox="0 0 88 88" fill="none" xmlns="http://www.w3.org/2000/svg">
<path d="M56.0417 85.2083H43.5417C23.8998 85.2083 14.0789 85.2083 7.97696 79.1063C1.875 73.0046 1.875 63.1833 1.875 43.5417C1.875 23.8998 1.875 14.0789 7.97696 7.97696C14.0789 1.875 23.8998 1.875 43.5417 1.875C63.1833 1.875 73.0046 1.875 79.1063 7.97696C83.1638 12.0342 84.5233 17.7356 84.9788 26.875M56.0417 85.2083C72.15 85.2083 85.2083 72.15 85.2083 56.0417M56.0417 85.2083C56.0417 77.4529 56.0417 73.5754 57.0613 70.4371C59.1221 64.0946 64.0946 59.1221 70.4371 57.0613C73.5754 56.0417 77.4529 56.0417 85.2083 56.0417M85.2083 56.0417V43.5417" stroke="white" stroke-width="3.75" stroke-linecap="round"/>
</svg>
