<svg width="436" height="66" viewBox="0 0 436 66" fill="none" xmlns="http://www.w3.org/2000/svg">
<path d="M14.4 64.32H3.44515e-05V-1.90735e-06H14.4V64.32ZM52.992 40.32H4.03203V27.456H52.992V40.32ZM54.432 12.96H4.03203V-1.90735e-06H54.432V12.96ZM74.9625 64.32H60.5625V-1.90735e-06H74.9625V64.32ZM102.372 65.28C97.892 65.28 94.148 64.448 91.14 62.784C88.196 61.056 85.988 58.752 84.516 55.872C83.108 52.992 82.404 49.76 82.404 46.176V16.224H96.804V41.376C96.804 45.216 97.732 48.032 99.588 49.824C101.444 51.552 104.644 52.416 109.188 52.416C113.924 52.416 117.22 51.488 119.076 49.632C120.996 47.712 121.956 44.704 121.956 40.608L123.78 40.512L124.836 49.632H122.148C121.764 52.32 120.804 54.848 119.268 57.216C117.796 59.584 115.652 61.536 112.836 63.072C110.084 64.544 106.596 65.28 102.372 65.28ZM136.356 64.32H122.916V49.44L121.956 48.96V16.224H136.356V64.32ZM156.871 64.32H139.495L158.695 40.8V40.032L139.495 16.224H157.063L169.831 32.448H170.599L182.983 16.224H200.359L181.159 39.744V40.608L200.359 64.32H182.791L170.023 48.192H169.255L156.871 64.32ZM252.389 64.32H238.949V52.896L238.181 52.704V35.904C238.181 32.768 237.381 30.656 235.781 29.568C234.245 28.48 231.557 27.936 227.717 27.936C224.069 27.936 221.445 28.48 219.845 29.568C218.245 30.656 217.445 32.576 217.445 35.328V35.712H202.949V35.424C202.949 31.456 204.005 27.968 206.117 24.96C208.229 21.888 211.205 19.52 215.045 17.856C218.949 16.128 223.525 15.264 228.773 15.264C234.149 15.264 238.565 16.128 242.021 17.856C245.541 19.584 248.133 22.016 249.797 25.152C251.525 28.224 252.389 31.872 252.389 36.096V64.32ZM218.597 65.28C213.413 65.28 209.349 64.128 206.405 61.824C203.461 59.52 201.989 56.384 201.989 52.416C201.989 49.984 202.565 47.904 203.717 46.176C204.869 44.448 206.597 43.072 208.901 42.048C211.205 40.96 214.085 40.224 217.541 39.84L239.141 37.632V45.888L221.477 47.904C219.749 48.032 218.469 48.384 217.637 48.96C216.869 49.472 216.485 50.304 216.485 51.456C216.485 52.736 216.997 53.664 218.021 54.24C219.045 54.816 220.613 55.104 222.725 55.104C226.181 55.104 229.029 54.784 231.269 54.144C233.509 53.504 235.205 52.48 236.357 51.072C237.573 49.6 238.181 47.648 238.181 45.216L239.525 45.12V53.28H238.181C237.093 56.992 234.885 59.936 231.557 62.112C228.293 64.224 223.973 65.28 218.597 65.28ZM312.872 64.32H298.472V39.168C298.472 35.264 297.576 32.48 295.784 30.816C293.992 29.088 290.888 28.224 286.472 28.224C281.864 28.224 278.632 29.184 276.776 31.104C274.984 32.96 274.088 35.936 274.088 40.032H272.264L271.208 31.008H273.896C274.344 28.32 275.304 25.792 276.776 23.424C278.248 20.992 280.328 19.04 283.016 17.568C285.768 16.032 289.256 15.264 293.48 15.264C297.832 15.264 301.448 16.128 304.328 17.856C307.208 19.52 309.352 21.792 310.76 24.672C312.168 27.552 312.872 30.784 312.872 34.368V64.32ZM274.088 64.32H259.688V16.224H273.032V31.2L274.088 31.68V64.32ZM341.66 65.28C336.668 65.28 332.444 64.256 328.988 62.208C325.532 60.16 322.908 57.28 321.116 53.568C319.324 49.792 318.428 45.376 318.428 40.32C318.428 35.2 319.292 30.784 321.02 27.072C322.812 23.296 325.372 20.384 328.7 18.336C332.092 16.288 336.156 15.264 340.892 15.264C346.588 15.264 350.972 16.544 354.044 19.104C357.116 21.664 359.036 24.96 359.804 28.992H362.492V39.84H360.668C360.668 35.68 359.452 32.736 357.02 31.008C354.652 29.28 351.164 28.416 346.556 28.416C343.484 28.416 340.924 28.8 338.876 29.568C336.892 30.336 335.42 31.584 334.46 33.312C333.5 34.976 333.02 37.312 333.02 40.32C333.02 43.2 333.5 45.504 334.46 47.232C335.42 48.96 336.892 50.208 338.876 50.976C340.924 51.744 343.484 52.128 346.556 52.128C349.628 52.128 352.188 51.744 354.236 50.976C356.348 50.208 357.948 48.992 359.036 47.328C360.124 45.6 360.668 43.36 360.668 40.608H362.492L363.452 50.976H360.86C359.964 55.712 357.916 59.296 354.716 61.728C351.516 64.096 347.164 65.28 341.66 65.28ZM375.068 64.32H361.628V50.112L360.668 48.864V-1.90735e-06H375.068V64.32ZM408.32 65.28C402.88 65.28 398.08 64.256 393.92 62.208C389.824 60.16 386.624 57.28 384.32 53.568C382.016 49.792 380.864 45.376 380.864 40.32C380.864 35.2 382.016 30.784 384.32 27.072C386.624 23.296 389.824 20.384 393.92 18.336C398.08 16.288 402.88 15.264 408.32 15.264C413.824 15.264 418.624 16.288 422.72 18.336C426.816 20.384 430.016 23.296 432.32 27.072C434.624 30.784 435.776 35.2 435.776 40.32C435.776 45.376 434.624 49.792 432.32 53.568C430.016 57.28 426.816 60.16 422.72 62.208C418.624 64.256 413.824 65.28 408.32 65.28ZM408.32 52.512C413.184 52.512 416.576 51.552 418.496 49.632C420.48 47.648 421.472 44.544 421.472 40.32C421.472 36.032 420.48 32.896 418.496 30.912C416.576 28.928 413.184 27.936 408.32 27.936C403.456 27.936 400.032 28.928 398.048 30.912C396.128 32.896 395.168 36.032 395.168 40.32C395.168 44.544 396.128 47.648 398.048 49.632C400.032 51.552 403.456 52.512 408.32 52.512Z" fill="white"/>
</svg>
