<svg width="99" height="55" viewBox="0 0 99 55" fill="none" xmlns="http://www.w3.org/2000/svg">
<path fill-rule="evenodd" clip-rule="evenodd" d="M0 30.7317C0 30.7317 16.3516 17.1152 29.0037 16.0312C38.7053 15.2 44.6524 22.0689 50.563 28.8956C56.5571 35.8189 62.5137 42.6987 72.3106 41.4591C79.4622 40.5542 98.1358 28.1492 98.1358 28.1492C98.1358 28.1492 83.6291 30.4691 73.8998 29.1424C64.6133 27.8761 59.2412 20.7236 54.0577 13.8221C48.3376 6.20624 42.8472 -1.10394 32.5795 0.13876C15.2527 2.23582 0 30.7317 0 30.7317Z" fill="white"/>
<path d="M27.4144 35.2479C14.7623 36.3318 0 41.9909 0 41.9909C0 41.9909 12.0742 29.1962 29.401 27.0991C48.9732 24.7303 45.6247 44.6983 65.159 47.362C74.8882 48.6887 85.4218 44.5847 85.4218 44.5847C85.4218 44.5847 72.5092 54.7161 60.9872 54.7161C41.375 54.7161 46.955 33.5737 27.4144 35.2479Z" fill="white"/>
</svg>
